# xmcd CD database file
#
# Track frame offsets:
#	150
#	20235
#	39289
#	70117
#	91860
#	117285
#	140327
#	167995
#	188972
#	210387
#	237400
#
# Disc length: 3587 seconds
#
# Revision: 0
# Processed by: cddbd v1.5.2PL0 Copyright (c) Steve Scherf et al.
# Submitted via: CDex 1.51
#
DISCID=950e010b
DTITLE=Old Merry Tale Jazzband - Jazzgala (Live in Concert)
DYEAR=1900
DGENRE=Jazz
TTITLE0=Saratoga Shout
TTITLE1=Stranger on the Shore
TTITLE2=Hallo, Kleines Fräulein
TTITLE3=White Cliffs of Dover
TTITLE4=I Want a Little Girl
TTITLE5=Royal Garden Blues
TTITLE6=Beale Street Blues
TTITLE7=Swing out
TTITLE8=My Darling Nelly Gray
TTITLE9=King Porter Stomp
TTITLE10=Make Me a Pallet on the Floor
EXTD=
EXTT0=
EXTT1=
EXTT2=
EXTT3=
EXTT4=
EXTT5=
EXTT6=
EXTT7=
EXTT8=
EXTT9=
EXTT10=
PLAYORDER=
